<?xml version="1.0" standalone="no"?>
<!DOCTYPE svg PUBLIC "-//W3C//DTD SVG 20010904//EN"
 "http://www.w3.org/TR/2001/REC-SVG-20010904/DTD/svg10.dtd">
<svg version="1.0" xmlns="http://www.w3.org/2000/svg"
 width="260.000000pt" height="260.000000pt" viewBox="0 0 260.000000 260.000000"
 preserveAspectRatio="xMidYMid meet">
<metadata>
Created by potrace 1.11, written by Peter Selinger 2001-2013
</metadata>
<g transform="translate(0.000000,260.000000) scale(0.100000,-0.100000)"
fill="#000000" stroke="none">
<path d="M1131 2590 c-556 -78 -987 -483 -1107 -1041 -26 -118 -26 -380 0
-498 59 -273 167 -474 360 -667 193 -193 394 -301 667 -360 118 -26 380 -26
498 0 273 59 474 167 667 360 193 193 301 394 360 667 14 62 18 127 18 249 0
122 -4 187 -18 249 -59 273 -167 474 -360 667 -190 189 -384 296 -646 355 -99
23 -340 33 -439 19z m391 -1157 c90 -269 164 -494 166 -500 3 -10 -20 -13 -92
-13 l-95 0 -38 115 -37 115 -196 0 -196 0 -37 -115 -38 -115 -75 0 c-41 0 -74
3 -74 8 0 6 308 936 325 980 3 8 35 12 114 12 l109 0 164 -487z"/>
<path d="M1154 1519 l-71 -219 143 0 c79 0 144 3 144 8 0 9 -138 423 -142 428
-2 1 -35 -96 -74 -217z"/>
</g>
</svg>
